<svg width="50" height="50" viewBox="0 0 50 50" fill="none" xmlns="http://www.w3.org/2000/svg">
<g id="clothes-hanger" clip-path="url(#clip0_201_5263)">
<path id="XMLID 1906" d="M47.3749 33.7714L26.4648 21.6541V20.7525C26.4648 19.7244 27.0516 18.768 27.9961 18.2567C30.1241 17.1049 31.389 14.8862 31.2972 12.4667C31.1729 9.19607 28.5141 6.5367 25.2441 6.41258C23.5139 6.34617 21.8753 6.97078 20.6302 8.16931C19.3843 9.36873 18.6981 10.9816 18.6981 12.7107C18.6981 13.5197 19.354 14.1756 20.163 14.1756C20.972 14.1756 21.6278 13.5197 21.6278 12.7107C21.6278 11.7851 21.9951 10.9219 22.662 10.2799C23.3281 9.63865 24.2046 9.30398 25.1329 9.34011C26.8814 9.40652 28.3031 10.8287 28.3696 12.5778C28.4188 13.8744 27.7413 15.0632 26.6016 15.6802C24.7102 16.7041 23.5352 18.6476 23.5352 20.7525V21.6541L2.6251 33.7714C1.00586 34.7097 0 36.4554 0 38.3271C0 41.2303 2.36152 43.5922 5.26426 43.5922H44.7357C47.6385 43.5922 50 41.2301 50 38.327C50 36.4553 48.9941 34.7097 47.3749 33.7714ZM44.7357 40.6625H5.26426C3.97695 40.6625 2.92969 39.6147 2.92969 38.327C2.92969 37.4967 3.37578 36.7224 4.09404 36.3063L25 24.1914L45.906 36.3063C46.6241 36.7225 47.0703 37.4968 47.0703 38.3271C47.0703 39.6148 46.023 40.6625 44.7357 40.6625Z" fill="#767676"/>
</g>
<defs>
<clipPath id="clip0_201_5263">
<rect width="50" height="50" fill="white"/>
</clipPath>
</defs>
</svg>
