<svg width="50" height="51" viewBox="0 0 50 51" fill="none" xmlns="http://www.w3.org/2000/svg">
<g id="handbag" clip-path="url(#clip0_201_5265)">
<g id="Group">
<g id="Group_2">
<path id="Vector" d="M48.4983 42.3405L43.4739 20.4264H37.359V12.5023C37.3589 5.60862 31.8149 0 25.0002 0C18.1855 0 12.6415 5.60862 12.6415 12.5023V20.4264H6.52662L1.5022 42.3405C1.04175 44.3491 1.50474 46.4269 2.77281 48.0413C4.04088 49.6556 5.93697 50.5814 7.97516 50.5814H42.0252C44.0634 50.5814 45.9597 49.6555 47.2277 48.0413C48.4958 46.4269 48.9588 44.3491 48.4983 42.3405ZM15.5714 12.5023C15.5714 7.24274 19.8012 2.96386 25.0003 2.96386C30.1993 2.96386 34.4292 7.24284 34.4292 12.5023V20.4264H15.5714V12.5023ZM44.9338 46.1974C44.2249 47.1 43.1648 47.6176 42.0253 47.6176H7.97516C6.83561 47.6176 5.77555 47.1001 5.06666 46.1974C4.35777 45.2947 4.09888 44.1331 4.3564 43.0101L8.85485 23.3903H12.6417V25.2501H11.6118V28.214H16.6015V25.2501H15.5716V23.3903H34.4293V25.2501H33.3993V28.214H38.3892V25.2501H37.3592V23.3903H41.146L45.6445 43.0101C45.9016 44.1331 45.6427 45.2947 44.9338 46.1974Z" fill="#767676"/>
</g>
</g>
<g id="Group_3">
<g id="Group_4">
<path id="Vector_2" d="M20.8088 25.2502V28.214H23.5352V30.5039H26.465V28.214H29.1913V25.2502H20.8088Z" fill="#767676"/>
</g>
</g>
</g>
<defs>
<clipPath id="clip0_201_5265">
<rect width="50" height="50.5814" fill="white"/>
</clipPath>
</defs>
</svg>
