<svg width="50" height="50" viewBox="0 0 50 50" fill="none" xmlns="http://www.w3.org/2000/svg">
<g id="hoodie" clip-path="url(#clip0_201_5272)">
<g id="Group">
<path id="Vector" d="M19.1406 25.3906C19.68 25.3906 20.1172 24.9533 20.1172 24.4141V18.5547C20.1172 18.0154 19.68 17.5781 19.1406 17.5781C18.6013 17.5781 18.1641 18.0154 18.1641 18.5547V24.4141C18.1641 24.9533 18.6013 25.3906 19.1406 25.3906Z" fill="#767676"/>
<path id="Vector_2" d="M30.8594 17.5781C30.3201 17.5781 29.8828 18.0154 29.8828 18.5547V24.4141C29.8828 24.9533 30.3201 25.3906 30.8594 25.3906C31.3986 25.3906 31.8359 24.9533 31.8359 24.4141V18.5547C31.8359 18.0154 31.3986 17.5781 30.8594 17.5781Z" fill="#767676"/>
<path id="Vector_3" d="M3.51562 24.4141V46.0938C3.51562 46.633 3.95283 47.0703 4.49219 47.0703H9.375V49.0234C9.375 49.5627 9.81221 50 10.3516 50H39.6484C40.1877 50 40.625 49.5627 40.625 49.0234V47.0703H45.5078C46.0471 47.0703 46.4844 46.633 46.4844 46.0938V24.4141C46.4844 17.5855 44.1596 11.1012 37.6079 9.2834C37.6654 8.9582 37.6953 8.63008 37.6953 8.30078C37.6953 5.99551 36.3133 3.86211 33.8038 2.29365C31.4372 0.814648 28.3105 0 25 0C21.6894 0 18.5628 0.814648 16.1962 2.29365C13.6867 3.86211 12.3047 5.99551 12.3047 8.30078C12.3047 8.63066 12.3347 8.95928 12.3923 9.28506C5.85088 11.1054 3.51562 17.5937 3.51562 24.4141ZM5.46875 45.1172V41.2109H9.375V45.1172H5.46875ZM22.6404 10.4376C21.076 9.31279 20.1172 8.53701 20.1172 6.83594C20.1172 4.14355 22.3076 1.95312 25 1.95312C27.6924 1.95312 29.8828 4.14355 29.8828 6.83594C29.8828 8.53711 28.924 9.31279 27.3596 10.4376C26.564 11.0097 25.6645 11.6569 25 12.5624C24.3355 11.6569 23.436 11.0097 22.6404 10.4376ZM32.8125 48.0469H25.9766V38.2812H30.1479C30.5469 40.2893 31.4568 42.0933 32.8125 43.5573V48.0469ZM24.0234 48.0469H17.1875V43.5573C18.5432 42.0933 19.4531 40.2892 19.8521 38.2812H24.0234V48.0469ZM40.625 45.1172V41.2109H44.5312V45.1172H40.625ZM35.7422 8.30078C35.7422 9.98389 34.5915 11.3808 33.2247 12.3485C32.7846 12.6602 32.6805 13.2697 32.9921 13.7099C33.3048 14.1514 33.9144 14.2532 34.3534 13.9425C35.3148 13.2616 36.0785 12.4955 36.635 11.658C37.8944 12.5655 38.6719 14.0421 38.6719 15.625V22.5584C38.6719 23.0977 39.1092 23.535 39.6484 23.535C40.1877 23.535 40.625 23.0977 40.625 22.5584V15.625C40.625 14.5008 40.3441 13.4153 39.8381 12.4523C43.8368 15.2523 44.5312 20.8632 44.5312 24.4141V39.2578H40.625V31.3476C40.625 30.8083 40.1877 30.371 39.6484 30.371C39.1092 30.371 38.6719 30.8083 38.6719 31.3476V48.0469H34.7656V43.1641C34.7656 42.9051 34.6627 42.6567 34.4796 42.4735C33.0775 41.0715 32.2023 39.2428 31.9487 37.1853C31.8885 36.6958 31.4727 36.3282 30.9795 36.3282H25.9766V15.625C25.9766 13.9238 26.9354 13.1481 28.4998 12.0233C29.9861 10.9547 31.8359 9.62471 31.8359 6.83594C31.8359 5.36748 31.3689 4.00693 30.5778 2.8915C31.3689 3.18174 32.1054 3.53535 32.7686 3.9499C34.6862 5.14844 35.7422 6.69355 35.7422 8.30078ZM17.2313 3.9499C17.8946 3.53535 18.6311 3.18174 19.4222 2.8915C18.6311 4.00693 18.1641 5.36748 18.1641 6.83594C18.1641 9.62471 20.0139 10.9547 21.5002 12.0233C23.0646 13.1481 24.0234 13.9239 24.0234 15.625V36.3281H19.0205C18.5273 36.3281 18.1116 36.6958 18.0513 37.1852C17.7977 39.2427 16.9225 41.0714 15.5203 42.4734C15.3373 42.6567 15.2344 42.9051 15.2344 43.1641V48.0469H11.3281V15.625C11.3281 14.0419 12.1057 12.5653 13.3653 11.6579C13.9224 12.4964 14.6857 13.262 15.6466 13.9426C16.0867 14.2541 16.6962 14.15 17.0079 13.71C17.3195 13.2698 17.2154 12.6604 16.7753 12.3486C15.4048 11.378 14.2578 9.98096 14.2578 8.30078C14.2578 6.69355 15.3138 5.14844 17.2313 3.9499ZM10.1594 12.4571C9.65498 13.4189 9.375 14.5026 9.375 15.625V39.2578H5.46875V24.4141C5.46875 20.8659 6.16289 15.2593 10.1594 12.4571Z" fill="#767676"/>
<path id="Vector_4" d="M39.6484 27.9296C40.1878 27.9296 40.625 27.4924 40.625 26.953C40.625 26.4137 40.1878 25.9765 39.6484 25.9765C39.1091 25.9765 38.6719 26.4137 38.6719 26.953C38.6719 27.4924 39.1091 27.9296 39.6484 27.9296Z" fill="#767676"/>
</g>
</g>
<defs>
<clipPath id="clip0_201_5272">
<rect width="50" height="50" fill="white"/>
</clipPath>
</defs>
</svg>
