<svg width="50" height="51" viewBox="0 0 50 51" fill="none" xmlns="http://www.w3.org/2000/svg">
<g id="shoes">
<g id="Group">
<path id="Vector" d="M43.0794 21.487C33.1614 17.4738 26.6149 12.6308 25.9102 12.2028C25.6695 12.0404 25.3869 11.9538 25.0977 11.9538H19.043C18.234 11.9538 17.5781 12.6173 17.5781 13.4357V16.3994C17.5781 17.2165 16.921 17.8813 16.1133 17.8813H10.2539C9.44619 17.8813 8.78906 17.2165 8.78906 16.3994C8.78906 13.9481 6.81768 11.9538 4.39453 11.9538H1.46484C0.655859 11.9538 0 12.6173 0 13.4357V37.1457C0 37.9641 0.655859 38.6276 1.46484 38.6276H48.5352C49.3441 38.6276 50 37.9641 50 37.1457V29.3038C50 22.965 43.7801 21.9698 43.0794 21.487ZM4.39453 14.9175C5.20225 14.9175 5.85938 15.5823 5.85938 16.3994C5.85938 18.8507 7.83076 20.8451 10.2539 20.8451H16.1133C18.5364 20.8451 20.5078 18.8507 20.5078 16.3994V14.9175H24.6541C25.1555 15.2544 25.5901 15.5532 26.3197 16.0312L24.0618 18.3154C23.4897 18.8941 23.4897 19.8323 24.0618 20.4111C24.6338 20.9898 25.5613 20.9899 26.1334 20.4111L28.8715 17.6411C29.8429 18.2324 30.8255 18.8055 31.8185 19.3599L29.9213 21.2791C29.3492 21.8579 29.3492 22.7961 29.9213 23.3748C30.4933 23.9535 31.4208 23.9536 31.9929 23.3748L34.5248 20.8134C35.5579 21.3453 36.6009 21.8575 37.6528 22.349L35.7807 24.2429C35.2086 24.8216 35.2086 25.7598 35.7807 26.3386C36.3526 26.9173 37.2802 26.9174 37.8522 26.3386L40.5294 23.6303C41.8653 24.1985 42.2275 24.33 44.3078 25.1762C45.9859 25.8552 47.0703 27.4755 47.0703 29.3038V29.7363H11.5714C10.8908 26.3584 7.93164 23.8088 4.39453 23.8088H2.92969V14.9175H4.39453ZM2.92969 26.7726H4.39453C6.3042 26.7726 7.93242 28.0116 8.53711 29.7363H2.92969V26.7726ZM2.92969 35.6638V32.7001H47.0703V35.6638H2.92969Z" fill="#767676"/>
</g>
</g>
</svg>
