<svg width="50" height="51" viewBox="0 0 50 51" fill="none" xmlns="http://www.w3.org/2000/svg">
<g id="trousers" clip-path="url(#clip0_201_5281)">
<g id="Group">
<g id="Group_2">
<path id="Vector" d="M40.3844 0H9.61526C8.81868 0 8.17297 0.65331 8.17297 1.45906V49.1223C8.17297 49.9282 8.81877 50.5814 9.61526 50.5814H19.2307C19.9199 50.5814 20.5128 50.0881 20.6459 49.404L24.9998 27.0135L29.3538 49.4041C29.4869 50.0882 30.0798 50.5815 30.7691 50.5815H40.3845C41.1811 50.5815 41.8268 49.9282 41.8268 49.1224V1.45906C41.8268 0.65331 41.181 0 40.3844 0ZM11.0575 9.24079H13.9421V12.8372L11.0575 14.7826V9.24079ZM38.9421 47.6633H31.9552L26.4149 19.1727C26.2819 18.4886 25.689 17.9953 24.9997 17.9953C24.3105 17.9953 23.7176 18.4886 23.5845 19.1727L18.0443 47.6633H11.0573V18.2897L16.1843 14.832C16.5856 14.5615 16.8266 14.1059 16.8266 13.6181V9.24079H33.1728V13.6181C33.1728 14.106 33.4137 14.5615 33.8151 14.832L38.942 18.2897V47.6633H38.9421ZM38.9421 14.7827L36.0575 12.8373V9.24079H38.9421V14.7827ZM38.9421 6.32267H11.0575V2.91811H38.9421V6.32267Z" fill="#767676"/>
</g>
</g>
</g>
<defs>
<clipPath id="clip0_201_5281">
<rect width="50" height="50.5814" fill="white"/>
</clipPath>
</defs>
</svg>
