<svg width="50" height="50" viewBox="0 0 50 50" fill="none" xmlns="http://www.w3.org/2000/svg">
<g id="tshirt" clip-path="url(#clip0_201_5285)">
<g id="XMLID 1071">
<g id="XMLID 752">
<path id="XMLID 765" d="M49.891 18.1845L44.9579 8.64687C43.5814 5.98555 41.1086 4.11406 38.1735 3.5123L30.6651 1.97295C30.6006 1.95977 30.5349 1.95312 30.469 1.95312H19.5315C19.4656 1.95312 19.3998 1.95977 19.3354 1.97305L11.8271 3.5124C8.89182 4.11416 6.41897 5.98555 5.04251 8.64687L0.109401 18.1845C-0.0149156 18.4249 -0.0339585 18.7062 0.0569594 18.9612C0.147877 19.2162 0.340553 19.422 0.589088 19.5295L7.79544 22.6469C8.28098 22.8569 8.84553 22.6421 9.06868 22.1623L9.19212 21.8968V47.0703C9.19212 47.6097 9.62932 48.0469 10.1687 48.0469H20.6057C21.145 48.0469 21.5823 47.6097 21.5823 47.0703C21.5823 46.531 21.145 46.0938 20.6057 46.0938H11.1452V15.4252C11.1452 14.8858 10.708 14.4486 10.1687 14.4486C9.62932 14.4486 9.19212 14.8858 9.19212 15.4252V17.2645L7.69846 20.4768L2.32503 18.1522L6.77737 9.54424C7.88147 7.40957 9.86497 5.9084 12.2194 5.42578L18.6632 4.10459C18.9003 5.39707 19.5256 6.58535 20.4807 7.5249C21.6936 8.71787 23.2987 9.375 25.0002 9.375C28.1383 9.375 30.7784 7.09424 31.3356 4.1042L37.7812 5.42568C40.1355 5.9083 42.1191 7.40947 43.2233 9.54414L47.6756 18.1521L42.3022 20.4767L40.8084 17.2645V15.4251C40.8084 14.8857 40.3711 14.4485 39.8319 14.4485C39.2926 14.4485 38.8553 14.8857 38.8553 15.4251V46.0938H29.3948C28.8555 46.0938 28.4182 46.531 28.4182 47.0703C28.4182 47.6097 28.8555 48.0469 29.3948 48.0469H39.8318C40.371 48.0469 40.8083 47.6097 40.8083 47.0703V21.8967L40.9319 22.1623C41.0969 22.5174 41.449 22.7273 41.8178 22.7273C41.9473 22.7273 42.0788 22.7015 42.2051 22.6469L49.4115 19.5295C49.6599 19.422 49.8526 19.2162 49.9435 18.9612C50.0344 18.7062 50.0154 18.4249 49.891 18.1845ZM25.0002 7.42188C22.8734 7.42188 21.0666 5.91064 20.6161 3.90625H29.3842C28.9347 5.91211 27.132 7.42188 25.0002 7.42188Z" fill="#767676"/>
<path id="XMLID 768" d="M28.6828 24.5535C28.8736 24.7442 29.1235 24.8395 29.3734 24.8395C29.6233 24.8395 29.8732 24.7442 30.0639 24.5535L31.7648 22.8526L33.4656 24.5535C33.6564 24.7442 33.9063 24.8395 34.1562 24.8395C34.4061 24.8395 34.656 24.7442 34.8467 24.5535C35.228 24.1721 35.228 23.5538 34.8467 23.1723L33.1458 21.4715L34.2262 20.3911C34.8836 19.7337 35.2457 18.8594 35.2457 17.9296C35.2457 16.9998 34.8836 16.1256 34.2262 15.4681C33.5688 14.8106 32.6946 14.4486 31.7648 14.4486C30.835 14.4486 29.9608 14.8107 29.3032 15.4681C27.9461 16.8254 27.9461 19.0338 29.3032 20.3911L30.3836 21.4715L28.6827 23.1723C28.3015 23.5538 28.3015 24.1721 28.6828 24.5535ZM30.6844 16.8492C30.973 16.5606 31.3567 16.4017 31.7648 16.4017C32.1729 16.4017 32.5565 16.5606 32.8451 16.8493C33.1338 17.138 33.2927 17.5216 33.2927 17.9297C33.2927 18.3378 33.1337 18.7215 32.8451 19.01L31.7648 20.0904L30.6844 19.01C30.0888 18.4143 30.0888 17.445 30.6844 16.8492Z" fill="#767676"/>
<path id="XMLID 769" d="M25 46.0938C24.7432 46.0938 24.4912 46.1982 24.3096 46.3799C24.1279 46.5615 24.0234 46.8135 24.0234 47.0703C24.0234 47.3271 24.1279 47.5791 24.3096 47.7607C24.4912 47.9424 24.7432 48.0469 25 48.0469C25.2568 48.0469 25.5088 47.9424 25.6903 47.7607C25.872 47.5791 25.9766 47.3271 25.9766 47.0703C25.9766 46.8135 25.8721 46.5615 25.6903 46.3799C25.5088 46.1982 25.2568 46.0938 25 46.0938Z" fill="#767676"/>
</g>
</g>
</g>
<defs>
<clipPath id="clip0_201_5285">
<rect width="50" height="50" fill="white"/>
</clipPath>
</defs>
</svg>
