<svg width="50" height="51" viewBox="0 0 50 51" fill="none" xmlns="http://www.w3.org/2000/svg">
<g id="wedding-dress" clip-path="url(#clip0_201_5291)">
<g id="Group">
<path id="Vector" d="M37.3318 23.8153C32.8604 18.804 32.7766 18.2689 35.0904 14.4862C35.8909 13.1775 36.7188 11.8242 36.7188 10.2743C36.7188 7.78608 34.1104 5.1597 32.8125 4.00699V1.58067C32.8125 0.707744 32.113 0 31.25 0C30.387 0 29.6875 0.707744 29.6875 1.58067V3.32978C27.61 3.78205 26.0231 5.06436 25 6.15414C23.9769 5.06436 22.39 3.78205 20.3125 3.32978V1.58067C20.3125 0.707744 19.613 0 18.75 0C17.887 0 17.1875 0.707744 17.1875 1.58067V4.00699C15.8896 5.1597 13.2812 7.78618 13.2812 10.2743C13.2812 11.8242 14.1091 13.1775 14.9096 14.4862C17.2309 18.281 17.1279 18.8173 12.6682 23.8153C8.64062 28.3286 3.125 34.5098 3.125 45.0491C3.125 45.4683 3.28965 45.8703 3.58271 46.1667C4.0293 46.6187 8.425 50.5814 25 50.5814C41.575 50.5814 45.9707 46.6187 46.4173 46.1667C46.7104 45.8703 46.875 45.4682 46.875 45.0491C46.875 34.5098 41.3594 28.3286 37.3318 23.8153ZM19.2782 6.35646C21.9312 6.69611 23.6451 9.48213 23.6602 9.50693C24.2745 10.5428 25.7379 10.5217 26.3365 9.51237C26.3547 9.48243 28.0686 6.69611 30.7216 6.35646C32.1812 7.64787 33.5938 9.40547 33.5938 10.2743C33.5938 11.6226 31.3859 13.7735 30.6874 16.4982H19.3126C18.6201 13.7971 16.4062 11.6096 16.4062 10.2743C16.4062 9.40537 17.8194 7.64727 19.2782 6.35646ZM37.4674 46.3762C37.2025 38.7466 35.3105 33.5978 33.4554 29.5383C33.0934 28.7459 32.1644 28.4007 31.3814 28.7668C30.5981 29.1331 30.2566 30.0724 30.6188 30.8648C32.3719 34.7012 34.1605 39.5856 34.3561 46.8828C32.2082 47.1597 29.6338 47.3567 26.5625 47.4071V30.823C26.5625 29.9501 25.863 29.2424 25 29.2424C24.137 29.2424 23.4375 29.9501 23.4375 30.823V47.4072C20.3662 47.3569 17.7918 47.1599 15.6439 46.8829C15.8395 39.5857 17.6282 34.7013 19.3813 30.8649C19.7434 30.0725 19.4019 29.1332 18.6186 28.7669C17.8353 28.4006 16.9067 28.746 16.5446 29.5384C14.6896 33.5979 12.7976 38.7467 12.5326 46.3763C8.94141 45.654 7.06768 44.7378 6.26211 44.2482C6.67734 30.5578 17.7007 25.4743 19.3234 19.6596H30.6767C32.3001 25.4769 43.3228 30.5574 43.738 44.2482C42.9323 44.7378 41.0585 45.654 37.4674 46.3762Z" fill="#767676"/>
</g>
</g>
<defs>
<clipPath id="clip0_201_5291">
<rect width="50" height="50.5814" fill="white"/>
</clipPath>
</defs>
</svg>
