<svg width="50" height="50" viewBox="0 0 50 50" fill="none" xmlns="http://www.w3.org/2000/svg">
<g id="wristwatch" clip-path="url(#clip0_201_5294)">
<g id="Group">
<path id="Vector" d="M38.0765 23.7218H37.0377C36.6129 19.8525 34.5261 16.476 31.5079 14.3249V1.46436C31.5079 0.655643 30.8522 0 30.0435 0H17.5346C16.7259 0 16.0703 0.655643 16.0703 1.46436V14.3249C12.6768 16.7435 10.4597 20.7107 10.4597 25.1861C10.4597 29.6615 12.6769 33.6287 16.0703 36.0474V48.5356C16.0703 49.3444 16.7259 50 17.5346 50H30.0435C30.8522 50 31.5079 49.3444 31.5079 48.5356V36.0474C34.5261 33.8962 36.6129 30.5197 37.0377 26.6505H38.0765C38.8852 26.6505 39.5408 25.9948 39.5408 25.1861C39.5408 24.3774 38.8852 23.7218 38.0765 23.7218ZM18.999 2.92872H28.5791V12.7476C27.0917 12.1728 25.4767 11.8568 23.7891 11.8568C22.1015 11.8568 20.4864 12.1728 18.9991 12.7476V2.92872H18.999ZM28.5791 47.0713H18.999V37.6247C20.4864 38.1994 22.1014 38.5155 23.789 38.5155C25.4766 38.5155 27.0917 38.1995 28.579 37.6248V47.0713H28.5791ZM23.7891 35.5867C18.0542 35.5867 13.3884 30.921 13.3884 25.186C13.3884 19.451 18.0541 14.7854 23.7891 14.7854C29.5062 14.7854 34.1601 19.4221 34.1891 25.1324C34.1884 25.1504 34.1864 25.1679 34.1864 25.186C34.1864 25.2042 34.1884 25.2217 34.1891 25.2396C34.1601 30.95 29.5061 35.5867 23.7891 35.5867Z" fill="#767676"/>
<path id="Vector_2" d="M23.7656 17.5513H23.7599C22.9512 17.5545 22.2981 18.2124 22.3011 19.0213L22.3224 24.6343L19.3627 27.985C18.8273 28.5911 18.8846 29.5165 19.4908 30.052C19.7693 30.298 20.1152 30.4189 20.4597 30.4189C20.865 30.4189 21.2684 30.2516 21.5578 29.924L24.8865 26.1556C25.1242 25.8866 25.2546 25.5396 25.2533 25.1806L25.2299 19.0102C25.2269 18.2033 24.5718 17.5513 23.7656 17.5513Z" fill="#767676"/>
<path id="Vector_3" d="M23.7892 8.85839C24.6033 8.85839 25.2632 8.19845 25.2632 7.38436C25.2632 6.57028 24.6033 5.91034 23.7892 5.91034C22.9751 5.91034 22.3152 6.57028 22.3152 7.38436C22.3152 8.19845 22.9751 8.85839 23.7892 8.85839Z" fill="#767676"/>
</g>
</g>
<defs>
<clipPath id="clip0_201_5294">
<rect width="50" height="50" fill="white"/>
</clipPath>
</defs>
</svg>
