<svg width="112" height="28" viewBox="0 0 112 28" fill="none" xmlns="http://www.w3.org/2000/svg">
<circle cx="99.0002" cy="13" r="13" fill="#C32929"/>
<path fill-rule="evenodd" clip-rule="evenodd" d="M14.6719 1.50002H14.2053V17.53C14.2053 18.7667 13.8786 19.77 13.2253 20.54C12.5719 21.31 11.5803 21.695 10.2503 21.695C8.94362 21.695 7.96362 21.31 7.31028 20.54C6.65695 19.77 6.33028 18.7667 6.33028 17.53V1.50002H0.415283V17.95C0.415283 19.49 0.660283 20.8317 1.15028 21.975C1.66362 23.1184 2.36362 24.0634 3.25028 24.81C4.16028 25.5334 5.21028 26.0817 6.40028 26.455C7.59028 26.8284 8.87362 27.015 10.2503 27.015C11.627 27.015 12.9103 26.8284 14.1003 26.455C15.3136 26.0817 16.3636 25.5334 17.2503 24.81C18.1603 24.0634 18.8603 23.1184 19.3503 21.975C19.8636 20.8317 20.1203 19.49 20.1203 17.95V6.94845L14.6719 1.50002ZM29.9963 13.75C29.9963 15.1967 30.2763 16.48 30.8363 17.6C31.4196 18.6967 32.2246 19.56 33.2513 20.19C34.3013 20.82 35.5263 21.135 36.9263 21.135C38.303 21.135 39.5046 20.82 40.5313 20.19C40.5892 20.1553 40.6464 20.1198 40.7028 20.0837L44.9402 24.3211C44.1151 24.9203 43.2055 25.4216 42.2113 25.825C40.6013 26.455 38.8396 26.77 36.9263 26.77C34.9896 26.77 33.2163 26.455 31.6063 25.825C29.9963 25.1717 28.5963 24.2617 27.4063 23.095C26.2396 21.9284 25.3296 20.5517 24.6763 18.965C24.0463 17.3784 23.7313 15.64 23.7313 13.75C23.7313 11.86 24.058 10.1334 24.7113 8.57002C25.1561 7.54238 25.7118 6.60547 26.3784 5.7593L30.7433 10.1242C30.2453 11.1772 29.9963 12.3858 29.9963 13.75ZM47.7534 21.4774L43.2394 16.9634C43.6273 16.0009 43.8213 14.9298 43.8213 13.75C43.8213 12.3034 43.5413 11.0317 42.9813 9.93502C42.4213 8.81502 41.628 7.94002 40.6013 7.31002C39.5746 6.68002 38.3496 6.36502 36.9263 6.36502C35.6198 6.36502 34.4657 6.63936 33.464 7.18802L29.3426 3.06662C30.0739 2.59835 30.8635 2.20448 31.7113 1.88502C33.3213 1.25502 35.0596 0.940024 36.9263 0.940024C38.8163 0.940024 40.5546 1.25502 42.1413 1.88502C43.7513 2.49169 45.1513 3.36669 46.3413 4.51002C47.5313 5.65336 48.453 7.00669 49.1063 8.57002C49.7596 10.1334 50.0863 11.86 50.0863 13.75C50.0863 15.64 49.7596 17.3784 49.1063 18.965C48.7466 19.8709 48.2956 20.7084 47.7534 21.4774ZM60.1764 13.505L58.7064 26H52.4764L56.4314 0.275024L66.8614 15.22L77.3264 0.275024L81.2814 26H75.0514L73.5814 13.505L66.8614 23.725L60.1764 13.505Z" fill="#222222"/>
</svg>
