<svg width="20" height="20" viewBox="0 0 20 20" fill="none" xmlns="http://www.w3.org/2000/svg">
<g id="002-user" clip-path="url(#clip0_201_5645)">
<g id="Group">
<g id="Group_2">
<path id="Vector" d="M10 11.2651C3.99077 11.2651 0.681274 14.1079 0.681274 19.27C0.681274 19.6732 1.00803 19.9999 1.4112 19.9999H18.5888C18.992 19.9999 19.3187 19.6732 19.3187 19.27C19.3188 14.1082 16.0093 11.2651 10 11.2651ZM2.16768 18.5401C2.45479 14.6805 5.08616 12.725 10 12.725C14.9139 12.725 17.5453 14.6805 17.8326 18.5401H2.16768Z" fill="#222222"/>
</g>
</g>
<g id="Group_3">
<g id="Group_4">
<path id="Vector_2" d="M10 0C7.23969 0 5.1582 2.12336 5.1582 4.93895C5.1582 7.83699 7.33023 10.1944 10 10.1944C12.6698 10.1944 14.8419 7.83699 14.8419 4.93918C14.8419 2.12336 12.7604 0 10 0ZM10 8.7348C8.13508 8.7348 6.61805 7.03211 6.61805 4.93918C6.61805 2.92313 8.04043 1.45984 10 1.45984C11.9283 1.45984 13.382 2.95547 13.382 4.93918C13.382 7.03211 11.865 8.7348 10 8.7348Z" fill="#222222"/>
</g>
</g>
</g>
<defs>
<clipPath id="clip0_201_5645">
<rect width="20" height="20" fill="white"/>
</clipPath>
</defs>
</svg>
