<svg width="45" height="45" viewBox="0 0 45 45" fill="none" xmlns="http://www.w3.org/2000/svg">
<g id="headphone">
<g id="Group">
<path id="Vector" d="M45 24.145C45 20.5524 42.4028 17.6025 39.1238 17.352C38.7349 16.066 37.6841 15.057 36.36 14.707C35.4771 7.58564 29.5831 2.15576 22.5 2.15576C15.4169 2.15576 9.52295 7.58564 8.64009 14.707C7.31602 15.057 6.26511 16.0659 5.87628 17.352C5.76237 17.3607 5.64935 17.3727 5.5372 17.3878V8.96811C5.5372 8.25377 4.94692 7.67463 4.21884 7.67463C3.49075 7.67463 2.90048 8.25377 2.90048 8.96811V18.4231C1.15699 19.6376 0 21.7479 0 24.145C0 27.7376 2.59717 30.6875 5.87619 30.938C6.26388 32.22 7.30925 33.2264 8.62743 33.5795C9.18905 36.7868 12.042 39.2357 15.4688 39.2357H15.7736C16.3252 40.8379 17.8707 41.9951 19.6875 41.9951H25.3125C27.5903 41.9951 29.4434 40.177 29.4434 37.9422C29.4434 35.7074 27.5903 33.8893 25.3125 33.8893H19.6875C17.8707 33.8893 16.3252 35.0465 15.7736 36.6487H15.4688C13.4751 36.6487 11.794 35.3124 11.3057 33.505C12.8568 32.98 13.9746 31.5342 13.9746 29.8363V18.4537C13.9746 16.7498 12.8491 15.3 11.2896 14.7797C12.1131 9.06625 16.8395 4.74273 22.5 4.74273C28.1605 4.74273 32.8869 9.06625 33.7104 14.7797C32.1509 15.3 31.0254 16.7498 31.0254 18.4537V29.8363C31.0254 31.976 32.7996 33.7168 34.9805 33.7168H35.332C37.1228 33.7168 38.6386 32.5426 39.1238 30.938C42.4028 30.6875 45 27.7376 45 24.145ZM19.6875 36.4762H25.3125C26.1364 36.4762 26.8066 37.1338 26.8066 37.9422C26.8066 38.7505 26.1364 39.4081 25.3125 39.4081H19.6875C18.8636 39.4081 18.1934 38.7505 18.1934 37.9422C18.1934 37.1338 18.8636 36.4762 19.6875 36.4762ZM2.63672 24.145C2.63672 22.0938 3.99243 20.3277 5.71289 19.9811V28.3088C3.99243 27.9623 2.63672 26.1962 2.63672 24.145ZM11.3379 29.8363C11.3379 30.5496 10.7465 31.1298 10.0195 31.1298H9.66797C8.94103 31.1298 8.34961 30.5496 8.34961 29.8363C8.34961 25.6856 8.34961 22.2907 8.34961 18.4537C8.34961 17.7404 8.94103 17.1602 9.66797 17.1602H10.0195C10.7465 17.1602 11.3379 17.7404 11.3379 18.4537V29.8363ZM36.6504 29.8363C36.6504 30.5496 36.059 31.1298 35.332 31.1298H34.9805C34.2535 31.1298 33.6621 30.5496 33.6621 29.8363V18.4537C33.6621 17.7404 34.2535 17.1602 34.9805 17.1602H35.332C36.059 17.1602 36.6504 17.7404 36.6504 18.4537V29.8363ZM39.2871 28.3089V19.9812C41.0076 20.3278 42.3633 22.0939 42.3633 24.1451C42.3633 26.1963 41.0076 27.9623 39.2871 28.3089Z" fill="#222222"/>
</g>
</g>
</svg>
