<svg width="20" height="20" viewBox="0 0 20 20" fill="none" xmlns="http://www.w3.org/2000/svg">
<g clip-path="url(#clip0_201_5655)">
<path d="M18.3932 3.30803C16.218 1.13346 12.6795 1.13346 10.5049 3.30803L9.99983 3.81282L9.49504 3.30803C7.32046 1.13316 3.78163 1.13316 1.60706 3.30803C-0.523361 5.43845 -0.537195 8.81539 1.57498 11.1633C3.50142 13.3041 9.18304 17.929 9.4241 18.1247C9.58775 18.2578 9.78467 18.3225 9.9804 18.3225C9.98688 18.3225 9.99335 18.3225 9.99953 18.3222C10.202 18.3316 10.406 18.2622 10.575 18.1247C10.816 17.929 16.4982 13.3041 18.4253 11.163C20.5371 8.8154 20.5233 5.43845 18.3932 3.30803ZM17.1125 9.98186C15.6105 11.6505 11.4818 15.0919 9.99953 16.3131C8.51724 15.0922 4.38944 11.6511 2.88773 9.98215C1.41427 8.34445 1.40044 6.01212 2.85564 4.55691C3.59885 3.814 4.57488 3.44225 5.5509 3.44225C6.52693 3.44225 7.50295 3.8137 8.24616 4.55691L9.3564 5.66715C9.48856 5.79931 9.65516 5.87819 9.82999 5.90586C10.1137 5.96679 10.4216 5.88761 10.6424 5.66745L11.7532 4.55691C13.2399 3.07079 15.6582 3.07109 17.144 4.55691C18.5992 6.01212 18.5854 8.34445 17.1125 9.98186Z" fill="#222222"/>
</g>
<defs>
<clipPath id="clip0_201_5655">
<rect width="20" height="20" fill="white"/>
</clipPath>
</defs>
</svg>
