<svg width="14" height="14" viewBox="0 0 14 14" fill="none" xmlns="http://www.w3.org/2000/svg">
<path d="M7.125 3.91504C8.84766 3.91504 10.2695 5.33691 10.2695 7.05957C10.2695 8.80957 8.84766 10.2041 7.125 10.2041C5.375 10.2041 3.98047 8.80957 3.98047 7.05957C3.98047 5.33691 5.375 3.91504 7.125 3.91504ZM7.125 9.11035C8.24609 9.11035 9.14844 8.20801 9.14844 7.05957C9.14844 5.93848 8.24609 5.03613 7.125 5.03613C5.97656 5.03613 5.07422 5.93848 5.07422 7.05957C5.07422 8.20801 6.00391 9.11035 7.125 9.11035ZM11.1172 3.80566C11.1172 4.21582 10.7891 4.54395 10.3789 4.54395C9.96875 4.54395 9.64062 4.21582 9.64062 3.80566C9.64062 3.39551 9.96875 3.06738 10.3789 3.06738C10.7891 3.06738 11.1172 3.39551 11.1172 3.80566ZM13.1953 4.54395C13.25 5.55566 13.25 8.59082 13.1953 9.60254C13.1406 10.5869 12.9219 11.4346 12.2109 12.1729C11.5 12.8838 10.625 13.1025 9.64062 13.1572C8.62891 13.2119 5.59375 13.2119 4.58203 13.1572C3.59766 13.1025 2.75 12.8838 2.01172 12.1729C1.30078 11.4346 1.08203 10.5869 1.02734 9.60254C0.972656 8.59082 0.972656 5.55566 1.02734 4.54395C1.08203 3.55957 1.30078 2.68457 2.01172 1.97363C2.75 1.2627 3.59766 1.04395 4.58203 0.989258C5.59375 0.93457 8.62891 0.93457 9.64062 0.989258C10.625 1.04395 11.5 1.2627 12.2109 1.97363C12.9219 2.68457 13.1406 3.55957 13.1953 4.54395ZM11.8828 10.6689C12.2109 9.87598 12.1289 7.96191 12.1289 7.05957C12.1289 6.18457 12.2109 4.27051 11.8828 3.4502C11.6641 2.93066 11.2539 2.49316 10.7344 2.30176C9.91406 1.97363 8 2.05566 7.125 2.05566C6.22266 2.05566 4.30859 1.97363 3.51562 2.30176C2.96875 2.52051 2.55859 2.93066 2.33984 3.4502C2.01172 4.27051 2.09375 6.18457 2.09375 7.05957C2.09375 7.96191 2.01172 9.87598 2.33984 10.6689C2.55859 11.2158 2.96875 11.626 3.51562 11.8447C4.30859 12.1729 6.22266 12.0908 7.125 12.0908C8 12.0908 9.91406 12.1729 10.7344 11.8447C11.2539 11.626 11.6914 11.2158 11.8828 10.6689Z" fill="#767676"/>
</svg>
