<svg width="14" height="14" viewBox="0 0 14 14" fill="none" xmlns="http://www.w3.org/2000/svg">
<path d="M13.5625 7.05957C13.5625 10.8057 10.5273 13.8408 6.78125 13.8408C6.07031 13.8408 5.38672 13.7588 4.75781 13.54C5.03125 13.1025 5.44141 12.3643 5.60547 11.7627C5.6875 11.4619 6.01562 10.1494 6.01562 10.1494C6.23438 10.5869 6.89062 10.9424 7.57422 10.9424C9.625 10.9424 11.1016 9.05566 11.1016 6.73145C11.1016 4.48926 9.26953 2.79395 6.91797 2.79395C3.99219 2.79395 2.43359 4.7627 2.43359 6.89551C2.43359 7.90723 2.95312 9.1377 3.80078 9.54785C3.9375 9.60254 4.01953 9.5752 4.04688 9.43848C4.04688 9.35645 4.18359 8.8916 4.23828 8.67285C4.23828 8.61816 4.23828 8.53613 4.18359 8.48145C3.91016 8.15332 3.69141 7.52441 3.69141 6.92285C3.69141 5.44629 4.8125 3.99707 6.75391 3.99707C8.39453 3.99707 9.57031 5.11816 9.57031 6.75879C9.57031 8.59082 8.64062 9.84863 7.4375 9.84863C6.78125 9.84863 6.28906 9.30176 6.42578 8.64551C6.61719 7.8252 7 6.9502 7 6.37598C7 5.85645 6.72656 5.41895 6.15234 5.41895C5.46875 5.41895 4.92188 6.12988 4.92188 7.05957C4.92188 7.66113 5.11328 8.07129 5.11328 8.07129C5.11328 8.07129 4.45703 10.915 4.32031 11.4346C4.18359 12.0361 4.23828 12.8564 4.29297 13.376C1.77734 12.3916 0 9.95801 0 7.05957C0 3.31348 3.03516 0.27832 6.78125 0.27832C10.5273 0.27832 13.5625 3.31348 13.5625 7.05957Z" fill="#767676"/>
</svg>
