<svg width="45" height="45" viewBox="0 0 45 45" fill="none" xmlns="http://www.w3.org/2000/svg">
<g id="shield" clip-path="url(#clip0_201_5744)">
<g id="surface1">
<path id="Vector" d="M41.6152 12.2096L41.6138 12.1746C41.5942 11.7424 41.5812 11.2851 41.5733 10.7763C41.5366 8.29508 39.5642 6.24271 37.0827 6.104C31.9088 5.81527 27.9063 4.12819 24.4865 0.794876L24.4573 0.767067C23.3419 -0.255689 21.6593 -0.255689 20.5435 0.767067L20.5143 0.794876C17.0945 4.12819 13.092 5.81527 7.91815 6.10435C5.43696 6.24271 3.46423 8.29508 3.4275 10.7766C3.41994 11.282 3.40655 11.7393 3.38698 12.1746L3.38493 12.256C3.28433 17.5318 3.15936 24.0978 5.35594 30.0576C6.56374 33.3349 8.39296 36.1838 10.7924 38.5256C13.5253 41.1925 17.1048 43.3098 21.4313 44.8183C21.5721 44.8674 21.7183 44.9073 21.8673 44.9371C22.0774 44.979 22.2889 45 22.5004 45C22.7119 45 22.9237 44.979 23.1335 44.9371C23.2825 44.9073 23.4298 44.8671 23.5712 44.8177C27.8926 43.3064 31.4683 41.1881 34.1987 38.5215C36.5972 36.179 38.4264 33.3294 39.6353 30.0514C41.8401 24.0738 41.7154 17.4954 41.6152 12.2096ZM37.1578 29.1378C34.8411 35.4192 30.1118 39.7331 22.6999 42.3251C22.6734 42.3341 22.6453 42.342 22.6161 42.3478C22.5395 42.3629 22.4616 42.3629 22.384 42.3475C22.3552 42.3416 22.327 42.3341 22.3009 42.3251C14.8811 39.7379 10.1487 35.4264 7.83369 29.1447C5.80912 23.6512 5.92379 17.6238 6.02507 12.3065L6.02576 12.2769C6.04636 11.82 6.06009 11.3414 6.06764 10.8154C6.08412 9.71369 6.96165 8.80217 8.06543 8.74072C10.9933 8.57729 13.5654 8.0115 15.9289 7.01106C18.2892 6.01199 20.3855 4.60369 22.337 2.7058C22.4362 2.62203 22.5649 2.62169 22.6638 2.7058C24.6156 4.60369 26.7119 6.01199 29.0719 7.01106C31.4354 8.0115 34.0075 8.57729 36.9357 8.74072C38.0395 8.80217 38.917 9.71369 38.9332 10.8158C38.9411 11.3445 38.9548 11.8231 38.9754 12.2769C39.0763 17.6005 39.1882 23.6326 37.1578 29.1378Z" fill="#222222"/>
<path id="Vector_2" d="M22.4998 11.2861C16.3159 11.2861 11.2852 16.3172 11.2852 22.5008C11.2852 28.6847 16.3159 33.7158 22.4998 33.7158C28.6834 33.7158 33.7144 28.6847 33.7144 22.5008C33.7144 16.3172 28.6834 11.2861 22.4998 11.2861ZM22.4998 31.0749C17.7719 31.0749 13.9257 27.2287 13.9257 22.5008C13.9257 17.7729 17.7719 13.9266 22.4998 13.9266C27.2273 13.9266 31.0736 17.7729 31.0736 22.5008C31.0736 27.2287 27.2273 31.0749 22.4998 31.0749Z" fill="#222222"/>
<path id="Vector_3" d="M25.7228 19.0193L20.5139 24.2282L19.1001 22.8144C18.5845 22.2988 17.7485 22.2988 17.2328 22.8144C16.7175 23.3301 16.7175 24.1661 17.2328 24.6814L19.5804 27.0291C19.8383 27.2869 20.1761 27.4156 20.5139 27.4156C20.8518 27.4156 21.1896 27.2869 21.4474 27.0291L27.5902 20.8863C28.1055 20.3707 28.1055 19.5347 27.5902 19.0193C27.0745 18.5033 26.2385 18.5033 25.7228 19.0193Z" fill="#222222"/>
</g>
</g>
<defs>
<clipPath id="clip0_201_5744">
<rect width="45" height="45" fill="white"/>
</clipPath>
</defs>
</svg>
