<svg width="14" height="12" viewBox="0 0 14 12" fill="none" xmlns="http://www.w3.org/2000/svg">
<path d="M12.5508 3.21582C12.5508 3.35254 12.5508 3.46191 12.5508 3.59863C12.5508 7.39941 9.67969 11.7471 4.40234 11.7471C2.76172 11.7471 1.25781 11.2822 0 10.4619C0.21875 10.4893 0.4375 10.5166 0.683594 10.5166C2.02344 10.5166 3.25391 10.0518 4.23828 9.28613C2.98047 9.25879 1.91406 8.43848 1.55859 7.29004C1.75 7.31738 1.91406 7.34473 2.10547 7.34473C2.35156 7.34473 2.625 7.29004 2.84375 7.23535C1.53125 6.96191 0.546875 5.81348 0.546875 4.41895V4.3916C0.929688 4.61035 1.39453 4.71973 1.85938 4.74707C1.06641 4.22754 0.574219 3.35254 0.574219 2.36816C0.574219 1.82129 0.710938 1.3291 0.957031 0.918945C2.37891 2.6416 4.51172 3.79004 6.89062 3.92676C6.83594 3.70801 6.80859 3.48926 6.80859 3.27051C6.80859 1.68457 8.09375 0.399414 9.67969 0.399414C10.5 0.399414 11.2383 0.727539 11.7852 1.30176C12.4141 1.16504 13.043 0.918945 13.5898 0.59082C13.3711 1.27441 12.9336 1.82129 12.332 2.17676C12.9062 2.12207 13.4805 1.95801 13.9727 1.73926C13.5898 2.31348 13.0977 2.80566 12.5508 3.21582Z" fill="#767676"/>
</svg>
